<svg preserveAspectRatio="none" viewBox="0 0 500 500" fill="none" xmlns="http://www.w3.org/2000/svg">
<path d="M9.5 454.503V44.4966C29.2615 44.2313 45.2313 28.2615 45.4966 8.5H455.503C455.769 28.2615 471.738 44.2313 491.5 44.4966V454.503C471.738 454.769 455.769 470.738 455.503 490.5H45.4966C45.2313 470.738 29.2615 454.769 9.5 454.503Z" stroke="black"/>
<path d="M17.5 447.771V52.2294C36.5617 51.9643 51.9643 36.5617 52.2294 17.5H447.771C448.036 36.5617 463.438 51.9643 482.5 52.2294V447.771C463.438 448.036 448.036 463.438 447.771 482.5H52.2294C51.9643 463.438 36.5617 448.036 17.5 447.771Z" stroke="black"/>
</svg>
